<svg width="28" height="27" viewBox="0 0 28 27" fill="none" xmlns="http://www.w3.org/2000/svg">
<path d="M26.6578 16.2081C24.9147 23.1997 17.8333 27.4547 10.8408 25.7112C3.85125 23.9682 -0.403742 16.8863 1.34008 9.89522C3.08236 2.90279 10.1638 -1.35252 17.1541 0.39053C24.1461 2.13358 28.4008 9.21622 26.6576 16.2082L26.6577 16.2081H26.6578Z" fill="#F3BA2F"/>
<path fill-rule="evenodd" clip-rule="evenodd" d="M14 8.28327L10.6205 11.6627L10.6206 11.6626L8.65429 9.69625L14 4.35057L19.3474 9.69786L17.381 11.6642L14 8.28327ZM7.26573 11.0846L5.29931 13.0512L7.26559 15.0172L9.23201 13.0508L7.26573 11.0846ZM10.6205 14.4399L14 17.8192L17.381 14.4383L19.3484 16.4036L19.3474 16.4047L14 21.7519L8.65429 16.4062L8.6515 16.4034L10.6205 14.4399ZM20.7343 11.0856L18.7679 13.052L20.7343 15.0183L22.7006 13.0519L20.7343 11.0856Z" fill="white"/>
<path d="M15.9946 13.05H15.9954L14.0003 11.0547L12.5255 12.529L12.3561 12.6985L12.0067 13.048L12.0039 13.0507L12.0067 13.0535L14.0003 15.0474L15.9956 13.0521L15.9965 13.051L15.9947 13.05" fill="white"/>
</svg>
