<svg width="30" height="30" viewBox="0 0 30 30" fill="none" xmlns="http://www.w3.org/2000/svg">
<path d="M29.5513 18.6286C27.5479 26.6644 19.409 31.5548 11.3722 29.5509C3.33883 27.5476 -1.55159 19.4081 0.452646 11.373C2.45512 3.33629 10.5941 -1.55451 18.6283 0.448851C26.6645 2.45221 31.5546 10.5926 29.5511 18.6287L29.5512 18.6286H29.5513Z" fill="#F7931A"/>
<path fill-rule="evenodd" clip-rule="evenodd" d="M21.616 12.8629C21.9146 10.8667 20.3948 9.79373 18.3167 9.07792L18.9908 6.37393L17.3448 5.96378L16.6885 8.59658C16.2558 8.48866 15.8114 8.38696 15.3698 8.28615L16.0308 5.63597L14.3858 5.22583L13.7113 7.92894C13.3532 7.84741 13.0015 7.76683 12.6603 7.68193L12.6622 7.67343L10.3923 7.1066L9.95445 8.86463C9.95445 8.86463 11.1756 9.14456 11.1499 9.16179C11.8165 9.32815 11.937 9.76939 11.917 10.1191L11.149 13.1996C11.1949 13.2113 11.2545 13.2281 11.3202 13.2545L11.2724 13.2426L11.2724 13.2426C11.2317 13.2324 11.1895 13.2219 11.1462 13.2115L10.0698 17.5268C9.98832 17.7293 9.78156 18.0332 9.31555 17.9178C9.33205 17.9417 8.11921 17.6192 8.11921 17.6192L7.302 19.5034L9.44401 20.0374C9.67856 20.0962 9.91034 20.1566 10.1398 20.2164L10.1402 20.2165C10.3004 20.2583 10.4595 20.2998 10.6175 20.3402L9.93641 23.0752L11.5805 23.4853L12.255 20.7794C12.7042 20.9013 13.1401 21.0138 13.5668 21.1198L12.8945 23.813L14.5406 24.2231L15.2217 21.4933C18.0284 22.0244 20.1389 21.8103 21.0273 19.2716C21.7431 17.2276 20.9916 16.0486 19.515 15.2798C20.5905 15.0318 21.4006 14.3244 21.6166 12.8631L21.6161 12.8628L21.616 12.8629ZM17.8552 18.1364C17.3885 20.0117 14.4532 19.2364 13.1102 18.8817C12.9894 18.8498 12.8815 18.8213 12.7894 18.7984L13.6932 15.175C13.8055 15.203 13.9426 15.2338 14.098 15.2686L14.098 15.2687C15.4872 15.5804 18.3334 16.2192 17.8553 18.1364H17.8552ZM14.3766 13.5869C15.4963 13.8857 17.9389 14.5376 18.3643 12.8332H18.3644C18.7988 11.09 16.425 10.5645 15.2657 10.3078C15.1352 10.2789 15.0202 10.2535 14.9262 10.23L14.1068 13.5163C14.1841 13.5355 14.2749 13.5598 14.3766 13.5869Z" fill="white"/>
</svg>
