<svg width="14" height="14" viewBox="0 0 14 14" fill="none" xmlns="http://www.w3.org/2000/svg">
<path d="M11.3242 5.71875C11.9565 4.74648 11.6809 3.44571 10.7087 2.81338C9.73642 2.18106 8.43564 2.45663 7.80332 3.4289L6.27675 5.77615C5.64443 6.74841 5.92 8.04919 6.89226 8.68151C7.86453 9.31384 9.1653 9.03826 9.79763 8.066L11.3242 5.71875Z" stroke="white" stroke-width="1.4" stroke-linecap="round"/>
<path d="M7.86033 8.47631C8.49265 7.50405 8.21708 6.20328 7.24481 5.57095C6.27255 4.93863 4.97177 5.2142 4.33945 6.18646L2.81288 8.53372C2.18056 9.50598 2.45613 10.8068 3.4284 11.4391C4.40066 12.0714 5.70144 11.7958 6.33376 10.8236L7.86033 8.47631Z" stroke="white" stroke-width="1.4" stroke-linecap="round"/>
</svg>
