<svg width="32" height="33" viewBox="0 0 32 33" fill="none" xmlns="http://www.w3.org/2000/svg">
<path opacity="0.4" d="M21.5868 3.16675H10.4268C5.57351 3.16675 2.68018 6.06008 2.68018 10.9134V22.0734C2.68018 26.9267 5.57351 29.8201 10.4268 29.8201H21.5868C26.4402 29.8201 29.3335 26.9267 29.3335 22.0734V10.9134C29.3335 6.06008 26.4402 3.16675 21.5868 3.16675Z" fill="#8D8D8D"/>
<path d="M13.4801 15.3667H9.94674C9.10674 15.3667 8.42676 16.0466 8.42676 16.8866V23.7133H13.4801V15.3667Z" fill="#8D8D8D"/>
<path opacity="0.4" d="M17.0135 9.30005H14.9868C14.1468 9.30005 13.4668 9.98007 13.4668 10.8201V23.7001H18.5201V10.8201C18.5201 9.98007 17.8535 9.30005 17.0135 9.30005Z" fill="#8D8D8D"/>
<path d="M22.0665 17.6333H18.5332V23.7H23.5865V19.1533C23.5732 18.3133 22.8932 17.6333 22.0665 17.6333Z" fill="#8D8D8D"/>
</svg>
