<svg width="24" height="23" viewBox="0 0 24 23" fill="none" xmlns="http://www.w3.org/2000/svg">
<path d="M1.52683 11.875H0C0.000320428 12.6309 0.0794227 13.3847 0.236025 14.1243H1.89563C1.69889 13.3885 1.57536 12.6351 1.52683 11.875Z" fill="#CCE118"/>
<path d="M2.75518 5.87436H1.81772C1.79668 5.87204 1.77589 5.86784 1.75559 5.86182C1.3035 6.57216 0.932769 7.33112 0.650391 8.12436H1.89783C2.10445 7.34654 2.3918 6.59245 2.75518 5.87436Z" fill="#CCE118"/>
<path d="M1.72267 8.87427H0.412064C0.207013 9.60942 0.0774513 10.3636 0.0253906 11.125H1.49992C1.50082 10.3693 1.57542 9.61549 1.72267 8.87427Z" fill="#CCE118"/>
<path d="M2.12055 14.8743H0.424805C0.649478 15.6568 0.961733 16.4114 1.35564 17.1239H3.17412C2.74326 16.414 2.39004 15.6598 2.12055 14.8743Z" fill="#CCE118"/>
<path d="M4.77344 20.873C6.56699 22.0975 8.68855 22.7517 10.8602 22.7499H10.9652C11.2799 22.7472 11.5942 22.7259 11.9064 22.6861C10.0856 22.495 8.33636 21.8735 6.80305 20.8731L4.77344 20.873Z" fill="#CCE118"/>
<path d="M6.09715 1.87012C4.59581 2.65973 3.2872 3.77089 2.26465 5.12437H3.17584C3.93649 3.8657 4.92756 2.76168 6.09715 1.87012Z" fill="#CCE118"/>
<path d="M3.66931 17.8738H1.81152C2.37456 18.7212 3.05275 19.4863 3.8266 20.1468C3.86438 20.1325 3.90426 20.1244 3.94465 20.123H5.7782C4.97929 19.4694 4.2702 18.7131 3.66931 17.8738Z" fill="#CCE118"/>
<path d="M13.5 11.5247V13.8493C13.8016 13.8393 14.0875 13.7125 14.2973 13.4956C14.5071 13.2787 14.6244 12.9887 14.6244 12.687C14.6244 12.3852 14.5071 12.0953 14.2973 11.8784C14.0875 11.6615 13.8016 11.5346 13.5 11.5247Z" fill="#CCE118"/>
<path d="M13.125 0.249268C10.9741 0.249268 8.87156 0.887075 7.08318 2.08204C5.29479 3.277 3.90092 4.97544 3.07782 6.96258C2.25471 8.94973 2.03935 11.1363 2.45896 13.2459C2.87858 15.3554 3.91432 17.2932 5.43522 18.8141C6.95611 20.3349 8.89385 21.3707 11.0034 21.7903C13.1129 22.2099 15.2995 21.9946 17.2867 21.1715C19.2738 20.3484 20.9723 18.9545 22.1672 17.1661C23.3622 15.3777 24 13.2751 24 11.1243C23.9967 8.24106 22.8499 5.47688 20.8111 3.43814C18.7724 1.3994 16.0082 0.252581 13.125 0.249268ZM13.125 20.1243C11.345 20.1243 9.60492 19.5964 8.12487 18.6075C6.64483 17.6186 5.49128 16.213 4.81009 14.5684C4.1289 12.9239 3.95067 11.1143 4.29794 9.36845C4.6452 7.62263 5.50237 6.01898 6.76104 4.76031C8.01972 3.50163 9.62336 2.64447 11.3692 2.2972C13.115 1.94993 14.9246 2.12816 16.5692 2.80935C18.2137 3.49054 19.6193 4.64409 20.6082 6.12414C21.5972 7.60418 22.125 9.34424 22.125 11.1243C22.1223 13.5104 21.1732 15.798 19.486 17.4852C17.7987 19.1725 15.5111 20.1215 13.125 20.1243Z" fill="#CCE118"/>
<path d="M11.625 9.56197C11.6303 9.86214 11.7494 10.1491 11.9581 10.3648C12.1669 10.5806 12.4498 10.709 12.7496 10.7242V8.3999C12.4498 8.41494 12.1668 8.54332 11.958 8.75906C11.7493 8.97479 11.6302 9.26179 11.625 9.56197Z" fill="#CCE118"/>
<path d="M13.125 2.87427C11.4933 2.87427 9.89825 3.35812 8.54155 4.26464C7.18484 5.17116 6.12742 6.45964 5.503 7.96713C4.87857 9.47462 4.7152 11.1334 5.03353 12.7338C5.35185 14.3341 6.13759 15.8041 7.29137 16.9579C8.44516 18.1117 9.91517 18.8974 11.5155 19.2157C13.1159 19.5341 14.7747 19.3707 16.2821 18.7463C17.7896 18.1219 19.0781 17.0644 19.9846 15.7077C20.8911 14.351 21.375 12.756 21.375 11.1243C21.3725 8.93699 20.5025 6.84001 18.9559 5.29337C17.4093 3.74673 15.3123 2.87674 13.125 2.87427ZM13.5 14.8754C13.5 14.9748 13.4605 15.0702 13.3902 15.1406C13.3198 15.2109 13.2245 15.2504 13.125 15.2504C13.0255 15.2504 12.9302 15.2109 12.8598 15.1406C12.7895 15.0702 12.75 14.9748 12.75 14.8754V14.6044C12.2142 14.5966 11.6998 14.3924 11.3046 14.0305C11.0283 13.7513 10.874 13.3738 10.8758 12.981C10.8778 12.9315 10.8896 12.883 10.9105 12.8381C10.9314 12.7933 10.961 12.753 10.9975 12.7196C11.0341 12.6862 11.0769 12.6604 11.1234 12.6436C11.17 12.6269 11.2194 12.6195 11.2688 12.6219C11.3183 12.6243 11.3667 12.6365 11.4114 12.6577C11.4561 12.6789 11.4962 12.7088 11.5293 12.7456C11.5624 12.7824 11.5879 12.8253 11.6043 12.872C11.6208 12.9187 11.6278 12.9682 11.625 13.0176C11.6348 13.2065 11.7157 13.3848 11.8513 13.5167C12.1026 13.731 12.4199 13.8525 12.75 13.861V11.4836C12.2486 11.4712 11.7719 11.2633 11.4216 10.9043C11.0714 10.5453 10.8754 10.0636 10.8754 9.56201C10.8754 9.06044 11.0714 8.57874 11.4216 8.21972C11.7719 7.8607 12.2486 7.6528 12.75 7.64038V7.37355C12.75 7.2741 12.7895 7.17871 12.8598 7.10839C12.9302 7.03806 13.0255 6.99855 13.125 6.99855C13.2245 6.99855 13.3198 7.03806 13.3902 7.10839C13.4605 7.17871 13.5 7.2741 13.5 7.37355V7.64459C14.0358 7.65256 14.5501 7.85671 14.9454 8.21839C15.2218 8.49763 15.376 8.87511 15.3743 9.26795C15.3692 9.36664 15.3253 9.45931 15.2522 9.52584C15.1792 9.59236 15.0828 9.62735 14.9841 9.6232C14.8853 9.61904 14.7922 9.57609 14.725 9.50367C14.6578 9.43125 14.6218 9.33522 14.625 9.23645C14.6162 9.04575 14.5353 8.86551 14.3987 8.73218C14.147 8.51879 13.8299 8.39788 13.5 8.38954V10.7653C14.0014 10.7777 14.4781 10.9856 14.8284 11.3446C15.1786 11.7037 15.3746 12.1854 15.3746 12.6869C15.3746 13.1885 15.1786 13.6702 14.8284 14.0292C14.4781 14.3882 14.0014 14.5961 13.5 14.6086V14.8754ZM14.5163 18.1138C14.4921 18.1185 14.4676 18.1208 14.443 18.1208C14.3499 18.1207 14.2601 18.086 14.1912 18.0234C14.1222 17.9608 14.079 17.8748 14.07 17.7821C14.0609 17.6894 14.0867 17.5967 14.1422 17.5219C14.1978 17.4472 14.2791 17.3958 14.3705 17.3777C15.272 17.1988 16.1241 16.8268 16.8682 16.2873C17.6123 15.7479 18.2308 15.0537 18.6812 14.2525C18.7054 14.2096 18.7378 14.1719 18.7765 14.1415C18.8153 14.1111 18.8597 14.0887 18.9071 14.0754C18.9545 14.0622 19.0041 14.0584 19.053 14.0644C19.1019 14.0703 19.1491 14.0858 19.192 14.11C19.2349 14.1342 19.2726 14.1666 19.303 14.2054C19.3334 14.2441 19.3558 14.2885 19.3691 14.3359C19.3823 14.3834 19.3861 14.433 19.3801 14.4818C19.3742 14.5307 19.3587 14.578 19.3345 14.6209C18.8309 15.5162 18.1396 16.292 17.3079 16.8949C16.4762 17.4979 15.5238 17.9137 14.5163 18.1138Z" fill="#CCE118"/>
</svg>
