<svg width="44" height="45" viewBox="0 0 44 45" fill="none" xmlns="http://www.w3.org/2000/svg">
<rect y="0.465332" width="44" height="44" rx="22" fill="#393939"/>
<path opacity="0.4" d="M27.9501 18.1754L27.8101 18.0954L26.4201 17.2954L23.5501 15.6354C22.6701 15.1254 21.3301 15.1254 20.4501 15.6354L17.5801 17.2954L16.1901 18.1054L16.0101 18.2054C14.2201 19.4054 14.1001 19.6254 14.1001 21.5554V26.1654C14.1001 28.0954 14.2201 28.3154 16.0501 29.5454L20.4501 32.0854C20.8901 32.3454 21.4401 32.4654 22.0001 32.4654C22.5501 32.4654 23.1101 32.3454 23.5501 32.0854L27.9901 29.5154C29.7801 28.3154 29.9001 28.0954 29.9001 26.1654V21.5554C29.9001 19.6254 29.7801 19.4054 27.9501 18.1754Z" fill="#FFFFF6"/>
<path d="M16.1899 18.1053L17.5799 17.2953L20.3199 15.7153L20.4499 15.6353C21.3299 15.1253 22.6699 15.1253 23.5499 15.6353L23.6799 15.7153L26.4199 17.2953L27.8099 18.0953V15.9553C27.8099 13.7053 26.5699 12.4653 24.3199 12.4653H19.6699C17.4199 12.4653 16.1899 13.7053 16.1899 15.9553V18.1053Z" fill="#FFFFF6"/>
<path d="M24.84 23.8054L24.22 24.5654C24.12 24.6754 24.05 24.8954 24.06 25.0454L24.12 26.0254C24.16 26.6254 23.73 26.9354 23.17 26.7154L22.26 26.3554C22.12 26.3054 21.88 26.3054 21.74 26.3554L20.83 26.7154C20.27 26.9354 19.84 26.6254 19.88 26.0254L19.94 25.0454C19.95 24.8954 19.88 24.6754 19.78 24.5654L19.16 23.8054C18.77 23.3454 18.94 22.8354 19.52 22.6854L20.47 22.4454C20.62 22.4054 20.8 22.2654 20.88 22.1354L21.41 21.3154C21.74 20.8054 22.26 20.8054 22.59 21.3154L23.12 22.1354C23.2 22.2654 23.38 22.4054 23.53 22.4454L24.48 22.6854C25.06 22.8354 25.23 23.3454 24.84 23.8054Z" fill="#FFFFF6"/>
</svg>
