<svg width="44" height="45" viewBox="0 0 44 45" fill="none" xmlns="http://www.w3.org/2000/svg">
<rect y="0.465332" width="44" height="44" rx="22" fill="#393939"/>
<path opacity="0.4" d="M30.0402 17.2853L24.2802 13.2553C22.7102 12.1553 20.3002 12.2153 18.7902 13.3853L13.7802 17.2953C12.7802 18.0753 11.9902 19.6753 11.9902 20.9353V27.8353C11.9902 30.3853 14.0602 32.4653 16.6102 32.4653H27.3902C29.9402 32.4653 32.0102 30.3953 32.0102 27.8453V21.0653C32.0102 19.7153 31.1402 18.0553 30.0402 17.2853Z" fill="white"/>
<path d="M22 29.2153C21.59 29.2153 21.25 28.8753 21.25 28.4653V25.4653C21.25 25.0553 21.59 24.7153 22 24.7153C22.41 24.7153 22.75 25.0553 22.75 25.4653V28.4653C22.75 28.8753 22.41 29.2153 22 29.2153Z" fill="#FFFFF6"/>
</svg>
