<svg width="44" height="45" viewBox="0 0 44 45" fill="none" xmlns="http://www.w3.org/2000/svg">
<rect y="0.465332" width="44" height="44" rx="22" fill="#393939"/>
<path opacity="0.4" d="M31 12.4653V24.5653C31 26.4653 30 27.4653 28.1 27.4653H15.9C14 27.4653 13 26.4653 13 24.5653V12.4653H31Z" fill="#FFFFF6"/>
<path d="M32 13.2153H12C11.59 13.2153 11.25 12.8753 11.25 12.4653C11.25 12.0553 11.59 11.7153 12 11.7153H32C32.41 11.7153 32.75 12.0553 32.75 12.4653C32.75 12.8753 32.41 13.2153 32 13.2153Z" fill="#FFFFF6"/>
<path d="M26.67 32.8053C26.54 33.0653 26.27 33.2153 26 33.2153C25.89 33.2153 25.77 33.1853 25.67 33.1353L22 31.3053L18.33 33.1353C18.23 33.1853 18.11 33.2153 18 33.2153C17.73 33.2153 17.46 33.0653 17.33 32.8053C17.14 32.4253 17.29 31.9753 17.67 31.7953L21.25 30.0053V27.4653H22.75V30.0053L26.33 31.7953C26.71 31.9753 26.86 32.4253 26.67 32.8053Z" fill="#FFFFF6"/>
<path d="M17.4999 22.2153C17.2899 22.2153 17.0699 22.1253 16.9199 21.9453C16.6499 21.6253 16.6999 21.1553 17.0199 20.8853L20.1699 18.2553C20.4599 18.0153 20.8299 17.9153 21.1799 17.9753C21.5399 18.0353 21.8499 18.2552 22.0399 18.5752L23.0899 20.3252L26.0199 17.8853C26.3399 17.6153 26.8099 17.6652 27.0799 17.9852C27.3499 18.3052 27.2999 18.7752 26.9799 19.0452L23.8299 21.6752C23.5399 21.9152 23.1699 22.0152 22.8199 21.9552C22.4599 21.8952 22.1499 21.6753 21.9599 21.3553L20.9099 19.6053L17.9799 22.0452C17.8399 22.1552 17.6699 22.2153 17.4999 22.2153Z" fill="#FFFFF6"/>
</svg>
