<svg width="44" height="45" viewBox="0 0 44 45" fill="none" xmlns="http://www.w3.org/2000/svg">
<rect y="0.465332" width="44" height="44" rx="22" fill="#393939"/>
<path d="M24.8913 28.5141L24.9056 28.497C25.2972 28.842 25.7843 29.0799 26.3218 29.1655L26.4845 29.1865L26.4841 30.8978C25.4821 30.8355 24.5683 30.4451 23.8478 29.8321L23.7063 29.7066L24.8913 28.5141ZM28.7065 28.426L29.8625 29.5884C29.8784 29.6042 29.8943 29.6168 29.9119 29.6271C29.2054 30.3145 28.2768 30.7725 27.2449 30.8815L27.0503 30.8978L27.0499 29.1865C27.6885 29.1227 28.2647 28.8452 28.7065 28.426ZM23.9387 26.6416L23.9542 26.6403C24.0014 27.1211 24.1677 27.5667 24.423 27.9469L24.5229 28.0863L24.4915 28.112L23.3146 29.2961C22.7445 28.6193 22.3677 27.7726 22.2696 26.8422L22.2529 26.6416L23.9387 26.6416ZM29.5802 26.6403L29.5956 26.6416L31.2814 26.6416C31.2258 27.5491 30.9057 28.3845 30.3976 29.071L30.2859 29.2158L30.2623 29.1863L29.0781 27.9952C29.3522 27.6047 29.531 27.1416 29.5802 26.6403ZM26.7672 24.0827C28.0162 24.0827 29.0286 25.101 29.0286 26.3573C29.0286 27.6135 28.0162 28.6319 26.7672 28.6319C25.5182 28.6319 24.5057 27.6135 24.5057 26.3573C24.5057 25.101 25.5182 24.0827 26.7672 24.0827ZM28.9858 14.033C29.939 14.033 30.7117 14.8141 30.7117 15.7776L30.7113 16.3279L27.5756 16.3283L27.5755 16.1452C27.5755 15.5028 27.0603 14.9821 26.4249 14.9821C26.2032 14.9821 25.9863 15.0468 25.8002 15.1684L21.8239 17.7667C21.2903 18.1154 21.1373 18.8354 21.4823 19.3749C21.5707 19.5131 21.6872 19.6308 21.8239 19.7202L24.5662 21.5124C22.7733 22.3255 21.5253 24.1389 21.5253 26.2454C21.5253 26.8577 21.6308 27.4452 21.8243 27.9906L11.726 27.9901C10.7728 27.9901 10 27.209 10 26.2454V15.7776C10 14.8141 10.7728 14.033 11.726 14.033H28.9858ZM23.3142 23.4188L24.4915 24.6025L24.5229 24.6283C24.2458 24.9916 24.054 25.4241 23.9774 25.8957L23.9542 26.0743L23.9387 26.0729L22.253 26.0728C22.3149 25.0639 22.7037 24.1439 23.3142 23.4188ZM28.965 24.569L30.1684 23.3585C30.766 24.0436 31.1622 24.9109 31.2641 25.8667L31.2814 26.0728L29.5956 26.0729L29.5802 26.0743C29.53 25.5637 29.3456 25.0928 29.0628 24.6978L28.965 24.569ZM16.1114 23.9193H12.8381C12.5416 23.9193 12.3013 24.1596 12.3013 24.4561C12.3013 24.7297 12.5061 24.9556 12.7708 24.9887L12.8381 24.9929H16.1114C16.4079 24.9929 16.6482 24.7525 16.6482 24.4561C16.6482 24.1596 16.4079 23.9193 16.1114 23.9193ZM21.0336 23.9193H17.7603C17.4639 23.9193 17.2235 24.1596 17.2235 24.4561C17.2235 24.7297 17.4283 24.9556 17.693 24.9887L17.7603 24.9929H21.0336C21.3301 24.9929 21.5704 24.7525 21.5704 24.4561C21.5704 24.1596 21.3301 23.9193 21.0336 23.9193ZM26.4841 21.8168L26.4847 23.5219L26.4858 23.5279C25.8834 23.5878 25.3367 23.8378 24.9073 24.2179L24.8995 24.209L24.8913 24.2004L23.7057 23.0086C24.4464 22.3232 25.4149 21.8832 26.4841 21.8168ZM27.0499 23.5156L27.0503 21.8168C28.022 21.8771 28.9108 22.2462 29.6208 22.8275L29.7701 22.9553L28.5674 24.165C28.1885 23.8498 27.7264 23.6321 27.2193 23.5501L27.0486 23.5279L27.0499 23.5156ZM27.7021 21.1572L30.712 21.1577L30.7123 23.0025C29.9689 22.0697 28.9119 21.4006 27.7021 21.1572ZM26.4247 16.1452L26.4256 17.4914L34 17.4917V19.9952L26.4256 19.995L26.4247 21.3417L22.4484 18.7434L26.4247 16.1452ZM15.1779 16.3592C14.8341 16.3592 14.5254 16.5116 14.3146 16.7533C14.1044 16.5116 13.7958 16.3592 13.452 16.3592C12.8165 16.3592 12.3013 16.8799 12.3013 17.5222C12.3013 18.1646 12.8165 18.6853 13.452 18.6853C13.7958 18.6853 14.1044 18.5329 14.3153 18.2912C14.5254 18.5329 14.8341 18.6853 15.1779 18.6853C15.8134 18.6853 16.3286 18.1646 16.3286 17.5222C16.3286 16.8799 15.8134 16.3592 15.1779 16.3592Z" fill="#FFFFF6"/>
</svg>
