<svg width="44" height="45" viewBox="0 0 44 45" fill="none" xmlns="http://www.w3.org/2000/svg">
<rect y="0.465332" width="44" height="44" rx="22" fill="#393939"/>
<path opacity="0.4" fill-rule="evenodd" clip-rule="evenodd" d="M33 25.6853C33.4142 25.6853 33.75 26.0211 33.75 26.4353C33.75 30.7195 30.2842 34.1853 26 34.1853C25.7298 34.1853 25.4805 34.04 25.3474 33.8048C25.2142 33.5697 25.2179 33.2811 25.3569 33.0494L26.4069 31.2994C26.62 30.9442 27.0807 30.8291 27.4359 31.0422C27.7911 31.2553 27.9062 31.716 27.6931 32.0712L27.4218 32.5234C30.1909 31.8809 32.25 29.4019 32.25 26.4353C32.25 26.0211 32.5858 25.6853 33 25.6853Z" fill="#FFFFF6"/>
<path opacity="0.4" fill-rule="evenodd" clip-rule="evenodd" d="M16.5782 12.3472C13.8091 12.9897 11.75 15.4687 11.75 18.4353C11.75 18.8495 11.4142 19.1853 11 19.1853C10.5858 19.1853 10.25 18.8495 10.25 18.4353C10.25 14.1511 13.7158 10.6853 18 10.6853C18.2702 10.6853 18.5195 10.8306 18.6526 11.0658C18.7858 11.3009 18.7821 11.5895 18.6431 11.8212L17.5931 13.5712C17.38 13.9264 16.9193 14.0415 16.5641 13.8284C16.2089 13.6153 16.0938 13.1546 16.3069 12.7994L16.5782 12.3472Z" fill="#FFFFF6"/>
<path opacity="0.4" d="M24.85 25.7953C24.85 29.2053 22.09 31.9653 18.68 31.9653C15.27 31.9653 12.51 29.2053 12.51 25.7953C12.51 22.3853 15.27 19.6252 18.68 19.6252C18.84 19.6252 18.99 19.6353 19.16 19.6453C22.19 19.8753 24.61 22.2953 24.84 25.3253C24.84 25.4753 24.85 25.6253 24.85 25.7953Z" fill="#FFFFF6"/>
<path d="M31.4999 19.1353C31.4999 22.5453 28.7399 25.3054 25.3299 25.3054H24.8399C24.6099 22.2754 22.1899 19.8553 19.1599 19.6253V19.1353C19.1599 15.7253 21.9199 12.9653 25.3299 12.9653C28.7399 12.9653 31.4999 15.7253 31.4999 19.1353Z" fill="#FFFFF6"/>
<path d="M21.1201 25.4753C21.2401 25.2253 21.3101 24.9553 21.3101 24.6653C21.3101 23.6653 20.4301 22.7853 19.4301 22.7853H19.1701V22.4053C19.1701 21.9953 18.8301 21.6553 18.4201 21.6553C18.0101 21.6553 17.6701 21.9953 17.6701 22.4053V22.7853H16.6201C16.2101 22.7853 15.8701 23.1253 15.8701 23.5353V25.7853V28.0353C15.8701 28.4453 16.2101 28.7853 16.6201 28.7853H17.6701V29.1653C17.6701 29.5753 18.0101 29.9153 18.4201 29.9153C18.8301 29.9153 19.1701 29.5753 19.1701 29.1653V28.7853H19.8301C20.9501 28.7853 21.8701 27.9453 21.8701 26.9053C21.8701 26.3353 21.5701 25.8153 21.1201 25.4753ZM17.3701 24.2853H19.4301C19.6401 24.2853 19.8101 24.5153 19.8101 24.6653C19.8101 24.8753 19.6401 25.0453 19.4301 25.0453H17.3701V24.2853ZM19.8301 27.2953H17.3601V26.5453H19.4201H19.8201C20.1401 26.5453 20.3601 26.7453 20.3601 26.9253C20.3601 27.1053 20.1501 27.2953 19.8301 27.2953Z" fill="#FFFFF6"/>
</svg>
