<svg width="45" height="45" viewBox="0 0 45 45" fill="none" xmlns="http://www.w3.org/2000/svg">
<rect width="45" height="45" rx="22.5" fill="#2D2D2D"/>
<path opacity="0.4" d="M34.1485 18.2985V27.6591C34.1485 31.7251 31.7246 34.149 27.6586 34.149H18.298C18.0746 34.149 17.8512 34.1378 17.639 34.1267C16.265 34.0373 15.1033 33.6464 14.1874 32.9761C13.7182 32.6522 13.3049 32.2389 12.981 31.7698C12.2102 30.7086 11.8081 29.3235 11.8081 27.6591V18.2985C11.8081 14.4559 13.9751 12.0767 17.639 11.8421C17.8512 11.8198 18.0746 11.8086 18.298 11.8086H27.6586C29.323 11.8086 30.7081 12.2107 31.7693 12.9815C32.2384 13.3054 32.6517 13.7187 32.9757 14.1878C33.7464 15.249 34.1485 16.6341 34.1485 18.2985Z" fill="#8D8D8D"/>
<path d="M29.6805 21.5823C30.1385 21.5823 30.5183 21.2026 30.5183 20.7446V16.2765C30.5183 16.1648 30.4959 16.0643 30.4512 15.9526C30.3619 15.7515 30.2055 15.5839 29.9933 15.4946C29.8927 15.4611 29.7922 15.4387 29.6805 15.4387H25.2124C24.7544 15.4387 24.3746 15.8185 24.3746 16.2765C24.3746 16.7345 24.7544 17.1143 25.2124 17.1143H27.6587L22.9784 21.7946L18.2981 17.1143H20.7443C21.2023 17.1143 21.5821 16.7345 21.5821 16.2765C21.5821 15.8185 21.2023 15.4387 20.7443 15.4387H16.2762C16.1645 15.4387 16.064 15.4611 15.9523 15.5057C15.7512 15.5839 15.5837 15.7515 15.5055 15.9526C15.4608 16.0643 15.4385 16.1648 15.4385 16.2765V20.7446C15.4385 21.2026 15.8183 21.5823 16.2762 21.5823C16.7342 21.5823 17.114 21.2026 17.114 20.7446V18.2983L21.7943 22.9786L17.114 27.6589V25.2127C17.114 24.7547 16.7342 24.3749 16.2762 24.3749C15.8183 24.3749 15.4385 24.7547 15.4385 25.2127V29.6807C15.4385 29.7924 15.4608 29.893 15.5055 30.0047C15.5949 30.2057 15.7512 30.3733 15.9635 30.4627C16.0528 30.4962 16.1645 30.5185 16.2762 30.5185H20.7443C21.2023 30.5185 21.5821 30.1387 21.5821 29.6807C21.5821 29.2228 21.2023 28.843 20.7443 28.843H18.2981L22.9784 24.1627L27.6587 28.843H25.2124C24.7544 28.843 24.3746 29.2228 24.3746 29.6807C24.3746 30.1387 24.7544 30.5185 25.2124 30.5185H29.6805C29.7922 30.5185 29.9039 30.4962 30.0044 30.4515C30.2055 30.3621 30.3731 30.2057 30.4624 29.9935C30.5071 29.893 30.5294 29.7813 30.5294 29.6696V25.2015C30.5294 24.7435 30.1496 24.3637 29.6917 24.3637C29.2337 24.3637 28.8539 24.7435 28.8539 25.2015V27.6478L24.1624 22.9786L28.8427 18.2983V20.7446C28.8427 21.2026 29.2225 21.5823 29.6805 21.5823Z" fill="#8D8D8D"/>
</svg>
