<svg width="48" height="48" viewBox="0 0 48 48" fill="none" xmlns="http://www.w3.org/2000/svg">
<circle cx="24" cy="24" r="24" fill="#2D2D2D"/>
<path opacity="0.4" d="M27.8406 14.8333H20.1681C16.8315 14.8333 14.8423 16.8224 14.8423 20.1591V27.8316C14.8423 31.1683 16.8315 33.1574 20.1681 33.1574H27.8406C31.1773 33.1574 33.1665 31.1683 33.1665 27.8316V20.1591C33.1665 16.8224 31.1773 14.8333 27.8406 14.8333Z" fill="#FBFDFF"/>
<path d="M21.4058 25.9158C21.58 25.9158 21.7541 25.8516 21.8916 25.7141L25.9066 21.6991V23.9266C25.9066 24.3024 26.2183 24.6141 26.5941 24.6141C26.97 24.6141 27.2816 24.3024 27.2816 23.9266V20.0399C27.2816 19.9483 27.2633 19.8658 27.2266 19.7741C27.1533 19.6091 27.025 19.4716 26.8508 19.3983C26.7683 19.3616 26.6766 19.3433 26.585 19.3433H22.6983C22.3225 19.3433 22.0108 19.6549 22.0108 20.0308C22.0108 20.4066 22.3225 20.7183 22.6983 20.7183H24.9258L20.9108 24.7333C20.645 24.9991 20.645 25.4391 20.9108 25.7049C21.0575 25.8516 21.2316 25.9158 21.4058 25.9158Z" fill="#FBFDFF"/>
<path d="M30.1508 27.9234C30.0316 27.5659 29.6466 27.3734 29.28 27.4925C25.87 28.6292 22.1208 28.6292 18.7108 27.4925C18.3533 27.3734 17.9591 27.5659 17.84 27.9234C17.7208 28.2809 17.9133 28.6751 18.2708 28.7942C20.1133 29.4084 22.0475 29.72 23.9908 29.72C25.9341 29.72 27.8683 29.4084 29.7108 28.7942C30.0775 28.6659 30.27 28.2809 30.1508 27.9234Z" fill="#FBFDFF"/>
</svg>
