<svg width="18" height="18" viewBox="0 0 18 18" fill="none" xmlns="http://www.w3.org/2000/svg">
<path opacity="0.4" d="M15.4355 3.01499V4.4775C14.9255 4.1025 14.3405 3.825 13.703 3.6825C13.373 3.6 13.0204 3.5625 12.6604 3.5625C10.0729 3.5625 7.97295 5.6625 7.97295 8.25C7.97295 9.105 8.20546 9.945 8.64796 10.665C9.02296 11.295 9.54794 11.82 10.1179 12.1725C10.3129 12.3 10.5154 12.4125 10.7254 12.51V14.3025C10.7254 14.76 10.4255 15.3675 10.0505 15.5925L9.00044 16.275C8.02544 16.8825 6.68292 16.2 6.68292 14.985V10.9725C6.68292 10.44 6.38293 9.75751 6.08293 9.38251L3.24045 6.3525C2.86545 5.97 2.56543 5.28751 2.56543 4.83751V3.09C2.56543 2.1825 3.24042 1.5 4.05792 1.5H13.943C14.7605 1.5 15.4355 2.18249 15.4355 3.01499Z" fill="white"/>
<path d="M13.4401 4.7775C13.1926 4.7175 12.9302 4.6875 12.6602 4.6875C10.6952 4.6875 9.09766 6.285 9.09766 8.25C9.09766 8.9175 9.28516 9.54751 9.61516 10.0875C9.89266 10.5525 10.2752 10.95 10.7402 11.235C11.2952 11.6025 11.9552 11.8125 12.6602 11.8125C13.9652 11.8125 15.0977 11.115 15.7127 10.0875C16.0427 9.54751 16.2227 8.9175 16.2227 8.25C16.2227 6.555 15.0376 5.13 13.4401 4.7775ZM14.1227 7.92751L12.3002 9.75C12.2327 9.8175 12.0901 9.88501 11.9926 9.90001L11.2952 9.99749C11.0402 10.035 10.8676 9.855 10.9051 9.6075L11.0026 8.91C11.0176 8.8125 11.0851 8.6775 11.1526 8.6025L12.7127 7.04251L12.9751 6.78001C13.2901 6.46501 13.6577 6.31501 14.1152 6.78001C14.5727 7.24501 14.4377 7.61251 14.1227 7.92751Z" fill="white"/>
</svg>
