<svg width="48" height="48" viewBox="0 0 48 48" fill="none" xmlns="http://www.w3.org/2000/svg">
<circle cx="24" cy="24" r="24" fill="#2D2D2D"/>
<path opacity="0.4" d="M21 16.5H27C29.4839 16.5 31.5 18.5161 31.5 21V23.0537L31.4697 23.0371H31.4707C30.6864 22.5837 29.7207 22.6827 29.0449 23.2334L28.9131 23.3496C28.8325 23.4241 28.7624 23.504 28.7002 23.585C28.4144 23.2104 28.0192 22.949 27.5635 22.8281H27.5645C27.0743 22.6913 26.5682 22.7341 26.1221 22.9414L25.9346 23.04L25.0352 23.5635C24.5053 23.8607 24.1307 24.3536 23.9766 24.9316V24.9336C23.8554 25.3979 23.8807 25.8735 24.043 26.3125C22.9722 26.4883 22.1504 27.4167 22.1504 28.5303V29.4697C22.1504 30.3636 22.6806 31.1376 23.4434 31.5H21C18.5161 31.5 16.5 29.4839 16.5 27V21C16.5 18.5161 18.5161 16.5 21 16.5Z" fill="#FBFDFF" stroke="#FBFDFF"/>
<path d="M29.2602 21.74V23.71C29.1502 23.81 29.0602 23.93 28.9802 24.06L28.9202 24.17C28.8102 24.36 28.7202 24.41 28.7102 24.42C28.6902 24.41 28.5902 24.36 28.4802 24.16L28.4202 24.06C28.2002 23.68 27.8502 23.42 27.4302 23.31C27.0002 23.19 26.5602 23.25 26.1902 23.47L25.2802 24C24.8702 24.23 24.5802 24.61 24.4602 25.06C24.3402 25.52 24.4002 25.99 24.6302 26.4C24.7402 26.58 24.7402 26.69 24.7402 26.71C24.7302 26.72 24.6302 26.78 24.4102 26.78C23.4402 26.78 22.6502 27.57 22.6502 28.53V29.26H21.7402C20.0902 29.26 18.7402 27.91 18.7402 26.26V21.74C18.7402 20.09 20.0902 18.74 21.7402 18.74H26.2602C27.9102 18.74 29.2602 20.09 29.2602 21.74Z" fill="#FBFDFF"/>
<path d="M21.0601 14.75V16H21.0001C20.5001 16 20.0201 16.07 19.5601 16.21V14.75C19.5601 14.34 19.8901 14 20.3101 14C20.7201 14 21.0601 14.34 21.0601 14.75Z" fill="#FBFDFF"/>
<path d="M24.75 14.75V16H23.25V14.75C23.25 14.34 23.59 14 24 14C24.41 14 24.75 14.34 24.75 14.75Z" fill="#FBFDFF"/>
<path d="M28.4502 14.75V16.21C27.9902 16.07 27.5002 16 27.0002 16H26.9502V14.75C26.9502 14.34 27.2902 14 27.7002 14C28.1102 14 28.4502 14.34 28.4502 14.75Z" fill="#FBFDFF"/>
<path d="M34 20.3C34 20.72 33.67 21.05 33.25 21.05H32V21C32 20.5 31.93 20.01 31.79 19.55H33.25C33.67 19.55 34 19.89 34 20.3Z" fill="#FBFDFF"/>
<path d="M21.0601 32V33.25C21.0601 33.66 20.7201 34 20.3101 34C19.8901 34 19.5601 33.66 19.5601 33.25V31.79C20.0201 31.93 20.5001 32 21.0001 32H21.0601Z" fill="#FBFDFF"/>
<path d="M16.21 19.55C16.07 20.01 16 20.5 16 21V21.05H14.75C14.34 21.05 14 20.72 14 20.3C14 19.89 14.34 19.55 14.75 19.55H16.21Z" fill="#FBFDFF"/>
<path d="M16 23.25V24.75H14.75C14.34 24.75 14 24.41 14 24C14 23.58 14.34 23.25 14.75 23.25H16Z" fill="#FBFDFF"/>
<path d="M16.21 28.45H14.75C14.34 28.45 14 28.11 14 27.7C14 27.28 14.34 26.95 14.75 26.95H16V27C16 27.5 16.07 27.99 16.21 28.45Z" fill="#FBFDFF"/>
<path opacity="0.4" d="M32.9899 27.53C32.3099 27.53 31.9199 27.19 31.9199 26.69C31.9199 26.49 31.9799 26.26 32.1199 26.02C32.3999 25.54 32.2299 24.92 31.7499 24.65L30.8399 24.12C30.4199 23.87 29.8799 24.02 29.6299 24.44L29.5699 24.54C29.0899 25.37 28.3099 25.37 27.8299 24.54L27.7699 24.44C27.5299 24.02 26.9799 23.87 26.5699 24.12L25.6499 24.65C25.3299 24.83 25.1399 25.17 25.1399 25.52C25.1399 25.69 25.1899 25.86 25.2799 26.02C25.4199 26.26 25.4899 26.49 25.4899 26.69C25.4899 27.19 25.0899 27.53 24.4099 27.53C23.8599 27.53 23.3999 27.98 23.3999 28.53V29.47C23.3999 30.02 23.8599 30.47 24.4099 30.47C25.0899 30.47 25.4899 30.81 25.4899 31.31C25.4899 31.51 25.4199 31.74 25.2799 31.98C24.9999 32.46 25.1699 33.08 25.6499 33.35L26.5699 33.88C26.9799 34.13 27.5299 33.98 27.7699 33.56L27.8299 33.46C28.3099 32.63 29.0899 32.63 29.5699 33.46L29.6299 33.56C29.8799 33.98 30.4199 34.13 30.8399 33.88L31.7499 33.35C32.0699 33.17 32.2599 32.83 32.2599 32.48C32.2599 32.31 32.2099 32.14 32.1199 31.98C31.9799 31.74 31.9199 31.51 31.9199 31.31C31.9199 30.81 32.3099 30.47 32.9899 30.47C33.5499 30.47 33.9999 30.02 33.9999 29.47V28.53C33.9999 27.98 33.5499 27.53 32.9899 27.53ZM28.6999 30.72C27.7499 30.72 26.9799 29.95 26.9799 29C26.9799 28.05 27.7499 27.28 28.6999 27.28C29.6499 27.28 30.4199 28.05 30.4199 29C30.4199 29.95 29.6499 30.72 28.6999 30.72Z" fill="#FBFDFF"/>
<path d="M30.42 29C30.42 29.95 29.65 30.72 28.7 30.72C27.75 30.72 26.98 29.95 26.98 29C26.98 28.05 27.75 27.28 28.7 27.28C29.65 27.28 30.42 28.05 30.42 29Z" fill="#FBFDFF"/>
</svg>
