<svg width="50" height="50" viewBox="0 0 50 50" fill="none" xmlns="http://www.w3.org/2000/svg">
<rect width="50" height="50" rx="25" fill="#1F1F1F"/>
<path d="M32 21C33.6569 21 35 19.6569 35 18C35 16.3431 33.6569 15 32 15C30.3431 15 29 16.3431 29 18C29 19.6569 30.3431 21 32 21Z" fill="#FBFDFF"/>
<path opacity="0.4" d="M32 22.5C29.52 22.5 27.5 20.48 27.5 18C27.5 17.28 27.69 16.61 27.99 16H20.52C17.07 16 15 18.06 15 21.52V29.47C15 32.94 17.07 35 20.52 35H28.47C31.93 35 33.99 32.94 33.99 29.48V22.01C33.39 22.31 32.72 22.5 32 22.5Z" fill="#FBFDFF"/>
<path d="M23.9002 25.3599C23.3302 25.1799 22.7202 25.2799 22.2902 25.6199C21.8502 25.2799 21.2502 25.1799 20.6902 25.3599C19.4602 25.7599 19.0702 27.1599 19.4202 28.2399C19.9502 29.8799 21.6802 30.7299 22.3002 30.7299C22.9102 30.7299 24.6702 29.8599 25.1802 28.2399C25.5302 27.1599 25.1302 25.7599 23.9002 25.3599Z" fill="#FBFDFF"/>
</svg>
