<svg width="44" height="45" viewBox="0 0 44 45" fill="none" xmlns="http://www.w3.org/2000/svg">
<rect y="0.465332" width="44" height="44" rx="22" fill="#CCE118"/>
<path d="M25 25.9653C25 29.5553 22.09 32.4653 18.5 32.4653C14.91 32.4653 12 29.5553 12 25.9653C12 22.3753 14.91 19.4653 18.5 19.4653C18.67 19.4653 18.85 19.4753 19.02 19.4853C22.19 19.7353 24.73 22.2753 24.98 25.4453C24.99 25.6153 25 25.7953 25 25.9653Z" fill="black"/>
<path opacity="0.4" d="M32 18.9653C32 22.5553 29.09 25.4653 25.5 25.4653C25.33 25.4653 25.15 25.4553 24.98 25.4453C24.73 22.2753 22.19 19.7353 19.02 19.4853C19.01 19.3153 19 19.1353 19 18.9653C19 15.3753 21.91 12.4653 25.5 12.4653C29.09 12.4653 32 15.3753 32 18.9653Z" fill="black"/>
<path d="M15.59 12.4653H13C12.45 12.4653 12 12.9153 12 13.4653V16.0553C12 16.9453 13.08 17.3953 13.71 16.7653L16.3 14.1753C16.92 13.5453 16.48 12.4653 15.59 12.4653Z" fill="black"/>
<path d="M28.4097 32.4654H30.9997C31.5497 32.4654 31.9997 32.0154 31.9997 31.4654V28.8754C31.9997 27.9854 30.9197 27.5353 30.2897 28.1653L27.6997 30.7553C27.0797 31.3853 27.5197 32.4654 28.4097 32.4654Z" fill="black"/>
</svg>
