<svg width="44" height="45" viewBox="0 0 44 45" fill="none" xmlns="http://www.w3.org/2000/svg">
<rect y="0.465332" width="44" height="44" rx="22" fill="#CCE118"/>
<path d="M30.83 18.4754L24.28 13.2354C23 12.2154 21 12.2054 19.73 13.2254L13.18 18.4754C12.24 19.2254 11.67 20.7253 11.87 21.9053L13.13 29.4454C13.42 31.1354 14.99 32.4654 16.7 32.4654H27.3C28.99 32.4654 30.59 31.1054 30.88 29.4354L32.14 21.8954C32.32 20.7254 31.75 19.2254 30.83 18.4754Z" fill="#310806"/>
<path d="M22 29.2153C21.59 29.2153 21.25 28.8753 21.25 28.4653V25.4653C21.25 25.0553 21.59 24.7153 22 24.7153C22.41 24.7153 22.75 25.0553 22.75 25.4653V28.4653C22.75 28.8753 22.41 29.2153 22 29.2153Z" fill="white"/>
</svg>
