<svg width="44" height="45" viewBox="0 0 44 45" fill="none" xmlns="http://www.w3.org/2000/svg">
<rect y="0.465332" width="44" height="44" rx="22" fill="#CCE118"/>
<path opacity="0.4" d="M27.9496 18.1754L27.8096 18.0954L26.4196 17.2954L23.5496 15.6354C22.6696 15.1254 21.3296 15.1254 20.4496 15.6354L17.5796 17.2954L16.1896 18.1054L16.0096 18.2054C14.2196 19.4054 14.0996 19.6254 14.0996 21.5554V26.1654C14.0996 28.0954 14.2196 28.3154 16.0496 29.5454L20.4496 32.0854C20.8896 32.3454 21.4396 32.4654 21.9996 32.4654C22.5496 32.4654 23.1096 32.3454 23.5496 32.0854L27.9896 29.5154C29.7796 28.3154 29.8996 28.0954 29.8996 26.1654V21.5554C29.8996 19.6254 29.7796 19.4054 27.9496 18.1754Z" fill="black"/>
<path d="M16.1904 18.1053L17.5804 17.2953L20.3204 15.7153L20.4504 15.6353C21.3304 15.1253 22.6704 15.1253 23.5504 15.6353L23.6804 15.7153L26.4204 17.2953L27.8104 18.0953V15.9553C27.8104 13.7053 26.5704 12.4653 24.3204 12.4653H19.6704C17.4204 12.4653 16.1904 13.7053 16.1904 15.9553V18.1053Z" fill="black"/>
<path d="M24.8397 23.8054L24.2197 24.5654C24.1197 24.6754 24.0497 24.8954 24.0597 25.0454L24.1197 26.0254C24.1597 26.6254 23.7297 26.9354 23.1697 26.7154L22.2597 26.3554C22.1197 26.3054 21.8797 26.3054 21.7397 26.3554L20.8297 26.7154C20.2697 26.9354 19.8397 26.6254 19.8797 26.0254L19.9397 25.0454C19.9497 24.8954 19.8797 24.6754 19.7797 24.5654L19.1597 23.8054C18.7697 23.3454 18.9397 22.8354 19.5197 22.6854L20.4697 22.4454C20.6197 22.4054 20.7997 22.2654 20.8797 22.1354L21.4097 21.3154C21.7397 20.8054 22.2597 20.8054 22.5897 21.3154L23.1197 22.1354C23.1997 22.2654 23.3797 22.4054 23.5297 22.4454L24.4797 22.6854C25.0597 22.8354 25.2297 23.3454 24.8397 23.8054Z" fill="black"/>
</svg>
