<svg width="44" height="45" viewBox="0 0 44 45" fill="none" xmlns="http://www.w3.org/2000/svg">
<rect y="0.465332" width="44" height="44" rx="22" fill="#CCE118"/>
<path d="M30.97 26.4653H28.03C26.76 26.4653 26 27.2253 26 28.4953V31.4353C26 32.7053 26.76 33.4653 28.03 33.4653H30.97C32.24 33.4653 33 32.7053 33 31.4353V28.4953C33 27.2253 32.24 26.4653 30.97 26.4653ZM31.63 28.9153L29.26 31.6853C29.17 31.7953 29.03 31.8653 28.89 31.8653C28.88 31.8653 28.88 31.8653 28.87 31.8653C28.73 31.8653 28.6 31.8153 28.5 31.7153L27.41 30.6353C27.21 30.4353 27.21 30.1053 27.41 29.9053C27.61 29.7053 27.94 29.6953 28.14 29.9053L28.84 30.5953L30.84 28.2553C31.03 28.0353 31.35 28.0153 31.57 28.1953C31.79 28.3753 31.81 28.7053 31.63 28.9153Z" fill="black"/>
<path d="M26 31.4353V28.4953C26 27.2253 26.76 26.4653 28.03 26.4653H30.97C31.37 26.4653 31.71 26.5453 32 26.6853C32 26.6753 32 26.6653 32 26.6453V18.2753C32 14.6353 29.83 12.4653 26.19 12.4653H17.81C14.17 12.4653 12 14.6353 12 18.2753V26.6453C12 30.2953 14.17 32.4653 17.81 32.4653H26.18C26.19 32.4653 26.2 32.4653 26.22 32.4653C26.08 32.1753 26 31.8353 26 31.4353Z" fill="black"/>
<path d="M17 24.7153C16.59 24.7153 16.25 24.3753 16.25 23.9653V20.9653C16.25 20.5553 16.59 20.2153 17 20.2153C17.41 20.2153 17.75 20.5553 17.75 20.9653V23.9653C17.75 24.3753 17.41 24.7153 17 24.7153Z" fill="white"/>
<path d="M22 24.7153C21.59 24.7153 21.25 24.3753 21.25 23.9653V20.9653C21.25 20.5553 21.59 20.2153 22 20.2153C22.41 20.2153 22.75 20.5553 22.75 20.9653V23.9653C22.75 24.3753 22.41 24.7153 22 24.7153Z" fill="white"/>
<path d="M27 24.7153C26.59 24.7153 26.25 24.3753 26.25 23.9653V20.9653C26.25 20.5553 26.59 20.2153 27 20.2153C27.41 20.2153 27.75 20.5553 27.75 20.9653V23.9653C27.75 24.3753 27.41 24.7153 27 24.7153Z" fill="white"/>
</svg>
