<svg width="44" height="45" viewBox="0 0 44 45" fill="none" xmlns="http://www.w3.org/2000/svg">
<rect y="0.465332" width="44" height="44" rx="22" fill="#CCE118"/>
<path d="M25 16.6155H16C13.79 16.6155 12 18.4055 12 20.6155V17.0054C12 14.9654 13.65 13.3154 15.69 13.3154H21.31C23.35 13.3154 25 14.5755 25 16.6155Z" fill="white"/>
<path d="M27.48 22.6652C26.98 23.1552 26.74 23.8952 26.94 24.6452C27.19 25.5752 28.11 26.1652 29.07 26.1652H30V27.6152C30 29.8252 28.21 31.6152 26 31.6152H16C13.79 31.6152 12 29.8252 12 27.6152V20.6152C12 18.4052 13.79 16.6152 16 16.6152H26C28.2 16.6152 30 18.4152 30 20.6152V22.0652H28.92C28.36 22.0652 27.85 22.2852 27.48 22.6652Z" fill="black"/>
<path d="M32.0002 23.0854V25.1454C32.0002 25.7054 31.5402 26.1655 30.9702 26.1655H29.0402C27.9602 26.1655 26.9702 25.3755 26.8802 24.2955C26.8202 23.6655 27.0602 23.0755 27.4802 22.6655C27.8502 22.2855 28.3602 22.0654 28.9202 22.0654H30.9702C31.5402 22.0654 32.0002 22.5254 32.0002 23.0854Z" fill="white"/>
<path d="M23 22.3652H17C16.59 22.3652 16.25 22.0252 16.25 21.6152C16.25 21.2052 16.59 20.8652 17 20.8652H23C23.41 20.8652 23.75 21.2052 23.75 21.6152C23.75 22.0252 23.41 22.3652 23 22.3652Z" fill="white"/>
</svg>
