<svg width="50" height="37" viewBox="0 0 50 37" fill="none" xmlns="http://www.w3.org/2000/svg">
<path d="M25.7506 27.17C24.7013 25.8862 24.8865 23.9975 26.1703 22.9483C26.4666 22.7137 28.6886 22.1952 30.3304 21.8249C30.4292 21.8126 30.5279 21.7755 30.6143 21.7508C30.6226 21.5533 30.6308 21.3558 30.639 21.1583C30.639 20.1584 30.5403 19.1832 30.3551 18.245C30.1329 18.5536 29.8737 18.8376 29.565 19.0844C29.1947 19.3931 25.8864 20.1831 23.4545 20.7263C21.8251 21.0966 20.4548 22.2076 19.7759 23.726C18.7513 25.9973 17.3193 29.0834 16.949 29.392C15.0603 30.9228 12.2951 30.6388 10.7644 28.7625C9.23368 26.8861 9.5176 24.1086 11.394 22.5779C11.8137 22.2323 15.0726 21.4793 17.4798 20.9485C19.134 20.5905 20.5165 19.4671 21.1955 17.9241C22.1954 15.665 23.5903 12.6283 24.01 12.2827C24.8988 11.5667 25.9851 11.2457 27.0468 11.3074C26.3925 10.5298 25.6518 9.81378 24.8618 9.17186C24.4544 9.27062 24.0471 9.35703 23.6767 9.44344C22.6274 9.67799 21.7386 10.4063 21.2942 11.3939C20.6276 12.8752 19.7018 14.875 19.4549 15.0725C18.2328 16.0724 16.4429 15.8872 15.443 14.6651C14.443 13.443 14.6282 11.6408 15.8503 10.6532C16.1219 10.431 18.2328 9.93722 19.8006 9.59157C20.8745 9.35703 21.7757 8.62871 22.2201 7.62881C22.2365 7.58766 22.253 7.54651 22.2694 7.50537C20.1832 6.44374 17.8254 5.83887 15.3195 5.83887C6.86353 5.83887 0 12.7024 0 21.1583C0 29.6142 6.86353 36.4654 15.3195 36.4654C21.2572 36.4654 26.4049 33.083 28.9478 28.1453C27.8121 28.4909 26.5406 28.1453 25.7506 27.17Z" fill="#FAFAFA"/>
<path d="M23.4054 11.0358C22.9733 11.3815 21.5784 14.4182 20.5785 16.6649C19.8995 18.2203 18.5169 19.3436 16.8628 19.7016C14.4556 20.2324 11.1967 20.9854 10.777 21.3311C8.90059 22.8618 8.61667 25.6269 10.1474 27.5156C11.6904 29.392 14.4556 29.6759 16.332 28.1329C16.7023 27.8366 18.1343 24.7505 19.1589 22.4791C19.8501 20.9484 21.208 19.8374 22.8375 19.4794C25.2694 18.9362 28.5777 18.1462 28.948 17.8376C30.8367 16.3069 31.1083 13.5417 29.5776 11.6654C28.0469 9.78902 25.2817 9.5051 23.4054 11.0358Z" fill="#CCE118"/>
<path d="M23.4301 2.71563C23.1585 2.93783 22.2573 4.91293 21.6031 6.36958C21.1587 7.38182 20.2575 8.11014 19.1836 8.34468C17.6282 8.69033 15.5049 9.18411 15.2333 9.40631C14.0112 10.3939 13.8384 12.1961 14.826 13.4182C15.8259 14.6403 17.6158 14.8132 18.8379 13.8256C19.0848 13.6281 20.0106 11.616 20.6772 10.147C21.1216 9.15942 22.0104 8.4311 23.0721 8.19655C24.6522 7.83856 26.8001 7.33244 27.0347 7.13493C28.2568 6.13503 28.4419 4.34509 27.442 3.12299C26.4545 1.90089 24.6522 1.71573 23.4301 2.71563Z" fill="#CCE118"/>
<path d="M34.1939 14.6528C33.8976 14.8873 32.9471 16.9612 32.2558 18.5043C31.799 19.5659 30.8485 20.3312 29.7252 20.5781C28.071 20.9361 25.849 21.4546 25.5651 21.6891C24.2812 22.7384 24.0837 24.6394 25.133 25.9233C26.1823 27.2071 28.071 27.3922 29.3548 26.343C29.6141 26.1455 30.5893 24.0346 31.2929 22.4792C31.762 21.4422 32.6878 20.6769 33.7988 20.43C35.4654 20.0597 37.7244 19.5165 37.9836 19.3066C39.2674 18.2574 39.465 16.3687 38.4157 15.0848C37.3664 13.801 35.4777 13.6035 34.1939 14.6528Z" fill="#CCE118"/>
<path d="M46.5013 2.62933C46.2914 2.7898 45.6125 4.28348 45.1187 5.38213C44.7854 6.13514 44.1064 6.69064 43.304 6.86347C42.119 7.1227 40.5389 7.49303 40.329 7.65351C39.4155 8.40652 39.2674 9.76441 40.0204 10.6779C40.7734 11.6037 42.119 11.7395 43.0448 10.9865C43.23 10.8384 43.9213 9.33235 44.4274 8.22135C44.7607 7.48069 45.4273 6.93753 46.2173 6.75237C47.4148 6.48079 49.0319 6.09811 49.2047 5.94998C50.1305 5.20931 50.2663 3.85143 49.5133 2.93794C48.7727 2.01211 47.4148 1.87632 46.5013 2.62933Z" fill="#CCE118"/>
<path d="M38.9092 0.604817C38.65 0.814672 37.7982 2.67868 37.181 4.06126C36.7613 4.99943 35.9219 5.69072 34.9096 5.91292C33.4283 6.23388 31.4408 6.70297 31.1816 6.91282C30.0336 7.851 29.8607 9.54218 30.7989 10.6902C31.7371 11.8382 33.4283 12.0111 34.5763 11.0729C34.8109 10.8877 35.6873 8.99903 36.3169 7.60411C36.7366 6.67828 37.5637 5.99933 38.5636 5.77713C40.0449 5.44383 42.0694 4.9624 42.304 4.77723C43.452 3.83906 43.6248 2.14787 42.6866 0.987495C41.7485 -0.160538 40.0573 -0.33336 38.9092 0.604817Z" fill="#CCE118"/>
</svg>
