<svg width="44" height="45" viewBox="0 0 44 45" fill="none" xmlns="http://www.w3.org/2000/svg">
<rect y="0.465332" width="44" height="44" rx="22" fill="#393939"/>
<path opacity="0.4" d="M23.24 12.4653C23.71 12.4653 24.1 12.8453 24.1 13.3253V31.6153C24.1 32.0853 23.72 32.4753 23.24 32.4753C17.35 32.4753 13.24 28.3653 13.24 22.4753C13.24 16.5853 17.36 12.4653 23.24 12.4653Z" fill="#FFFFF6"/>
<path d="M30.5399 22.0052L27.6999 19.1552C27.4099 18.8652 26.9299 18.8652 26.6399 19.1552C26.3499 19.4452 26.3499 19.9252 26.6399 20.2152L28.1999 21.7752H18.6299C18.2199 21.7752 17.8799 22.1152 17.8799 22.5252C17.8799 22.9352 18.2199 23.2752 18.6299 23.2752H28.1999L26.6399 24.8352C26.3499 25.1252 26.3499 25.6052 26.6399 25.8952C26.7899 26.0452 26.9799 26.1152 27.1699 26.1152C27.3599 26.1152 27.5499 26.0452 27.6999 25.8952L30.5399 23.0452C30.8299 22.7652 30.8299 22.2952 30.5399 22.0052Z" fill="#FFFFF6"/>
</svg>
