<svg width="50" height="50" viewBox="0 0 50 50" fill="none" xmlns="http://www.w3.org/2000/svg">
<path d="M0 25C0 11.1929 11.1929 0 25 0C38.8071 0 50 11.1929 50 25C50 38.8071 38.8071 50 25 50C11.1929 50 0 38.8071 0 25Z" fill="#1F1F1F"/>
<path opacity="0.4" d="M30.98 23.79V27.79C30.98 28.05 30.97 28.3 30.94 28.54C30.71 31.24 29.12 32.58 26.19 32.58H25.79C25.54 32.58 25.3 32.7 25.15 32.9L23.95 34.5C23.42 35.21 22.56 35.21 22.03 34.5L20.83 32.9C20.7 32.73 20.41 32.58 20.19 32.58H19.79C16.6 32.58 15 31.79 15 27.79V23.79C15 20.86 16.35 19.27 19.04 19.04C19.28 19.01 19.53 19 19.79 19H26.19C29.38 19 30.98 20.6 30.98 23.79Z" fill="#FBFDFF"/>
<path d="M22.9902 27C22.4302 27 21.9902 26.55 21.9902 26C21.9902 25.45 22.4402 25 22.9902 25C23.5402 25 23.9902 25.45 23.9902 26C23.9902 26.55 23.5502 27 22.9902 27Z" fill="#FBFDFF"/>
<path d="M26.4902 27C25.9302 27 25.4902 26.55 25.4902 26C25.4902 25.45 25.9402 25 26.4902 25C27.0402 25 27.4902 25.45 27.4902 26C27.4902 26.55 27.0402 27 26.4902 27Z" fill="#FBFDFF"/>
<path d="M19.5 27C18.94 27 18.5 26.55 18.5 26C18.5 25.45 18.95 25 19.5 25C20.05 25 20.5 25.45 20.5 26C20.5 26.55 20.05 27 19.5 27Z" fill="#FBFDFF"/>
<path d="M34.98 19.79V23.79C34.98 26.73 33.63 28.31 30.94 28.54C30.97 28.3 30.98 28.05 30.98 27.79V23.79C30.98 20.6 29.38 19 26.19 19H19.79C19.53 19 19.28 19.01 19.04 19.04C19.27 16.35 20.86 15 23.79 15H30.19C33.38 15 34.98 16.6 34.98 19.79Z" fill="#FBFDFF"/>
</svg>
