<svg width="18" height="18" viewBox="0 0 18 18" fill="none" xmlns="http://www.w3.org/2000/svg">
<path opacity="0.4" d="M10.6426 2.73438C10.8935 2.31273 11.4306 2.17288 11.8379 2.41504L11.8438 2.41797L13.1416 3.16016V3.16113C13.6425 3.44762 13.8138 4.09399 13.5273 4.58984C13.1463 5.24749 13.0647 5.93197 13.3779 6.47559C13.6913 7.01885 14.3238 7.28993 15.082 7.29004C15.6561 7.29004 16.1327 7.76084 16.1328 8.33984V9.66016C16.1328 10.2343 15.6611 10.71 15.082 10.71C14.3236 10.7101 13.6912 10.9818 13.3779 11.5254C13.1038 12.0012 13.1325 12.5841 13.3994 13.1631L13.5283 13.4102C13.8153 13.9145 13.6418 14.554 13.1416 14.8398L11.8438 15.582L11.8379 15.585C11.456 15.812 10.9597 15.7038 10.6924 15.3418L10.6426 15.2656L10.5615 15.127C10.1841 14.4696 9.63415 14.0568 9.00684 14.0566C8.37942 14.0566 7.8265 14.4693 7.44531 15.127L7.36523 15.2656C7.1143 15.6874 6.57627 15.8273 6.16895 15.585L6.16406 15.582L4.86621 14.8398C4.39633 14.5713 4.21618 13.9857 4.43164 13.5049L4.47949 13.4102C4.86053 12.7526 4.943 12.069 4.62988 11.5254C4.31656 10.9817 3.68345 10.71 2.9248 10.71C2.34581 10.7099 1.87504 10.2342 1.875 9.66016V8.33984C1.87513 7.76583 2.34586 7.29015 2.9248 7.29004C3.68328 7.29004 4.31649 7.01906 4.62988 6.47559C4.90409 5.99976 4.87538 5.41599 4.6084 4.83691L4.47949 4.58984C4.19311 4.09394 4.36515 3.44751 4.86621 3.16113V3.16016L6.16406 2.41797L6.16895 2.41504C6.55066 2.18794 7.04704 2.29653 7.31445 2.6582L7.36523 2.73438L7.44531 2.87305C7.82279 3.53076 8.37342 3.94336 9.00098 3.94336C9.62834 3.94334 10.1803 3.53062 10.5615 2.87305H10.5625L10.6426 2.73438Z" fill="white" stroke="white" stroke-width="0.75"/>
<path d="M9 11.4375C10.3462 11.4375 11.4375 10.3462 11.4375 9C11.4375 7.65381 10.3462 6.5625 9 6.5625C7.65381 6.5625 6.5625 7.65381 6.5625 9C6.5625 10.3462 7.65381 11.4375 9 11.4375Z" fill="white"/>
</svg>
