<svg width="12" height="12" viewBox="0 0 12 12" fill="none" xmlns="http://www.w3.org/2000/svg">
<path d="M7.42852 2.46293C6.89505 1.17902 5.10495 1.17902 4.57148 2.46293L4.29184 3.13594C4.1805 3.40392 3.93787 3.58614 3.66055 3.61754L2.88019 3.7059C1.56104 3.85526 1.03465 5.49744 1.98315 6.41444L2.64571 7.055C2.84145 7.24425 2.92947 7.52497 2.87549 7.79799L2.71552 8.60711C2.44992 9.9505 3.8975 10.9991 5.06393 10.2503L5.58727 9.91429C5.83983 9.75214 6.16017 9.75214 6.41273 9.91429L6.93607 10.2503C8.1025 10.9991 9.55008 9.9505 9.28448 8.60711L9.12451 7.79799C9.07053 7.52497 9.15855 7.24425 9.35429 7.055L10.0169 6.41444C10.9654 5.49744 10.439 3.85526 9.11981 3.7059L8.33945 3.61754C8.06213 3.58614 7.8195 3.40392 7.70816 3.13594L7.42852 2.46293Z" fill="white"/>
</svg>
