<svg width="22" height="22" viewBox="0 0 22 22" fill="none" xmlns="http://www.w3.org/2000/svg">
<path d="M7.3335 8.25L11.0002 8.25" stroke="#8D8D8D" stroke-width="1.375" stroke-linecap="round"/>
<path d="M2.64478 13.8886L3.31202 13.723L2.64478 13.8886ZM2.64478 8.11135L3.31202 8.27703L2.64478 8.11135ZM19.3549 8.11136L20.0221 7.94568L19.3549 8.11136ZM19.3549 13.8886L18.6877 13.723L19.3549 13.8886ZM13.8558 18.9374L13.707 18.2662H13.707L13.8558 18.9374ZM8.1439 18.9374L8.29263 18.2662L8.1439 18.9374ZM8.1439 3.06263L8.29263 3.73385L8.1439 3.06263ZM13.8558 3.06263L14.0045 2.39141H14.0045L13.8558 3.06263ZM7.72785 18.8452L7.57911 19.5164L7.72785 18.8452ZM14.2718 18.8452L14.4206 19.5164H14.4206L14.2718 18.8452ZM14.2718 3.15482L14.1231 3.82604L14.2718 3.15482ZM7.72785 3.15482L7.57912 2.4836L7.72785 3.15482ZM17.1354 13.295L17.0121 13.9714L17.0121 13.9714L17.1354 13.295ZM17.0817 13.2852L17.205 12.6089L17.205 12.6089L17.0817 13.2852ZM17.0817 8.71478L17.205 9.39113L17.205 9.39113L17.0817 8.71478ZM17.1354 8.70498L17.0121 8.02864L17.0121 8.02864L17.1354 8.70498ZM19.2499 9.61336C19.5977 9.76552 20.0031 9.60687 20.1553 9.259C20.3074 8.91113 20.1488 8.50577 19.8009 8.3536L19.5254 8.98348L19.2499 9.61336ZM19.8009 13.6464C20.1488 13.4942 20.3074 13.0889 20.1553 12.741C20.0031 12.3931 19.5977 12.2345 19.2499 12.3866L19.5254 13.0165L19.8009 13.6464ZM15.1965 11.5759L14.5354 11.7647H14.5354L15.1965 11.5759ZM15.1965 10.4241L15.8575 10.613L15.1965 10.4241ZM7.72785 3.15482L7.87658 3.82604L8.29263 3.73385L8.1439 3.06263L7.99517 2.39141L7.57912 2.4836L7.72785 3.15482ZM13.8558 3.06263L13.7071 3.73385L14.1231 3.82604L14.2718 3.15482L14.4206 2.4836L14.0045 2.39141L13.8558 3.06263ZM14.2718 18.8452L14.1231 18.174L13.707 18.2662L13.8558 18.9374L14.0045 19.6086L14.4206 19.5164L14.2718 18.8452ZM8.1439 18.9374L8.29263 18.2662L7.87658 18.174L7.72785 18.8452L7.57911 19.5164L7.99517 19.6086L8.1439 18.9374ZM2.64478 13.8886L3.31202 13.723C2.868 11.9348 2.868 10.0652 3.31202 8.27703L2.64478 8.11135L1.97754 7.94567C1.47949 9.95142 1.47949 12.0486 1.97754 14.0543L2.64478 13.8886ZM19.3549 8.11136L18.6877 8.27704C19.1317 10.0652 19.1317 11.9348 18.6877 13.723L19.3549 13.8886L20.0221 14.0543C20.5202 12.0486 20.5202 9.95143 20.0221 7.94568L19.3549 8.11136ZM13.8558 18.9374L13.707 18.2662C11.9239 18.6613 10.0758 18.6613 8.29263 18.2662L8.1439 18.9374L7.99517 19.6086C9.97429 20.0471 12.0254 20.0471 14.0045 19.6086L13.8558 18.9374ZM8.1439 3.06263L8.29263 3.73385C10.0758 3.33872 11.9239 3.33872 13.7071 3.73385L13.8558 3.06263L14.0045 2.39141C12.0254 1.95286 9.97429 1.95286 7.99517 2.39141L8.1439 3.06263ZM7.72785 18.8452L7.87658 18.174C5.63392 17.677 3.86575 15.9529 3.31202 13.723L2.64478 13.8886L1.97754 14.0543C2.65702 16.7907 4.82678 18.9065 7.57911 19.5164L7.72785 18.8452ZM14.2718 18.8452L14.4206 19.5164C17.1729 18.9065 19.3427 16.7907 20.0221 14.0543L19.3549 13.8886L18.6877 13.723C18.1339 15.9529 16.3658 17.677 14.1231 18.174L14.2718 18.8452ZM14.2718 3.15482L14.1231 3.82604C16.3658 4.32298 18.1339 6.04706 18.6877 8.27704L19.3549 8.11136L20.0221 7.94568C19.3427 5.20931 17.1729 3.09347 14.4206 2.4836L14.2718 3.15482ZM7.72785 3.15482L7.57912 2.4836C4.82679 3.09347 2.65702 5.2093 1.97754 7.94567L2.64478 8.11135L3.31202 8.27703C3.86575 6.04706 5.63392 4.32298 7.87658 3.82604L7.72785 3.15482ZM17.1354 13.295L17.2587 12.6187L17.205 12.6089L17.0817 13.2852L16.9584 13.9616L17.0121 13.9714L17.1354 13.295ZM17.0817 8.71478L17.205 9.39113L17.2587 9.38133L17.1354 8.70498L17.0121 8.02864L16.9584 8.03843L17.0817 8.71478ZM17.1354 8.70498L17.2587 9.38133C17.9307 9.25881 18.624 9.33959 19.2499 9.61336L19.5254 8.98348L19.8009 8.3536C18.9243 7.97017 17.9533 7.85702 17.0121 8.02864L17.1354 8.70498ZM17.1354 13.295L17.0121 13.9714C17.9533 14.143 18.9243 14.0298 19.8009 13.6464L19.5254 13.0165L19.2499 12.3866C18.624 12.6604 17.9307 12.7412 17.2587 12.6187L17.1354 13.295ZM15.1965 11.5759L15.8575 11.387C15.7853 11.1341 15.7853 10.8659 15.8575 10.613L15.1965 10.4241L14.5354 10.2353C14.3927 10.7351 14.3927 11.2649 14.5354 11.7647L15.1965 11.5759ZM17.0817 8.71478L16.9584 8.03843C15.7985 8.24992 14.8593 9.10159 14.5354 10.2353L15.1965 10.4241L15.8575 10.613C16.0377 9.98231 16.5601 9.50872 17.205 9.39113L17.0817 8.71478ZM17.0817 13.2852L17.205 12.6089C16.5601 12.4913 16.0377 12.0177 15.8575 11.387L15.1965 11.5759L14.5354 11.7647C14.8593 12.8984 15.7985 13.7501 16.9584 13.9616L17.0817 13.2852Z" fill="#8D8D8D"/>
</svg>
